<svg width="6" height="9" viewBox="0 0 6 9" fill="none" xmlns="http://www.w3.org/2000/svg">
<path d="M4.9351 4.93492L4.93509 4.93493L1.92522 7.9447C1.92521 7.94471 1.9252 7.94471 1.9252 7.94472C1.68492 8.18509 1.29531 8.18511 1.05511 7.94468M4.9351 4.93492L1.05515 7.07477C0.81496 7.31495 0.814952 7.70447 1.05511 7.94468M4.9351 4.93492C5.05514 4.81485 5.11527 4.65721 5.11527 4.49993C5.11527 4.34274 5.05525 4.18519 4.93519 4.06507L4.93517 4.06505M4.9351 4.93492L4.93517 4.06505M1.05511 7.94468L1.14354 7.85633L1.05515 7.94472C1.05514 7.94471 1.05512 7.94469 1.05511 7.94468ZM3.63005 4.49995L3.71844 4.41156L3.80683 4.49995L3.71845 4.58834L1.05521 1.05523C0.815017 1.29544 0.815048 1.68494 1.05521 1.9252L1.05523 1.92522L3.63005 4.49995ZM3.63005 4.49995L1.05516 7.07477L3.63005 4.49995ZM4.93517 4.06505L1.92527 1.05521C1.92527 1.05521 1.92527 1.05521 1.92527 1.05521C1.68501 0.814946 1.29545 0.814914 1.05523 1.05521L4.93517 4.06505Z" fill="#2F80ED" stroke="#2F80ED" stroke-width="0.25"/>
</svg>