<svg width="41" height="41" viewBox="0 0 41 41" fill="none" xmlns="http://www.w3.org/2000/svg">
<path d="M0 5.125C0 2.29454 2.29153 0 5.11828 0H35.828C38.6547 0 40.9462 2.29454 40.9462 5.125V35.875C40.9462 38.7055 38.6547 41 35.828 41H5.11828C2.29153 41 0 38.7055 0 35.875V5.125Z" fill="white"/>
<path d="M27.9055 31.775H12.8948C12.3037 31.775 11.7589 31.4555 11.4695 30.9394C11.1802 30.4233 11.1917 29.7911 11.4995 29.2858L16.8077 20.5732L11.4995 11.8607C11.1917 11.3554 11.1802 10.7232 11.4695 10.2071C11.7588 9.69095 12.3037 9.37146 12.8948 9.37146H27.9055C28.8082 9.37146 29.5399 10.1042 29.5399 11.0082C29.5399 11.9122 28.8082 12.6449 27.9055 12.6449H15.8065L20.1175 19.7207C20.4364 20.2442 20.4364 20.9023 20.1175 21.4257L15.8065 28.5015H27.9055C28.8082 28.5015 29.5399 29.2343 29.5399 30.1383C29.5399 31.0423 28.8082 31.775 27.9055 31.775Z" fill="white"/>
<path d="M27.9055 31.775H12.8948C12.3037 31.775 11.7589 31.4555 11.4695 30.9394C11.1802 30.4233 11.1917 29.7911 11.4995 29.2858L16.8077 20.5732L11.4995 11.8607C11.1917 11.3554 11.1802 10.7232 11.4695 10.2071C11.7588 9.69095 12.3037 9.37146 12.8948 9.37146H27.9055C28.8082 9.37146 29.5399 10.1042 29.5399 11.0082C29.5399 11.9122 28.8082 12.6449 27.9055 12.6449H15.8065L20.1175 19.7207C20.4364 20.2442 20.4364 20.9023 20.1175 21.4257L15.8065 28.5015H27.9055C28.8082 28.5015 29.5399 29.2343 29.5399 30.1383C29.5399 31.0423 28.8082 31.775 27.9055 31.775Z" fill="url(#paint0_linear_1_76)"/>
<defs>
<linearGradient id="paint0_linear_1_76" x1="37.4854" y1="-0.161109" x2="3.98488" y2="12.4531" gradientUnits="userSpaceOnUse">
<stop stop-color="#32228A"/>
<stop offset="1" stop-color="#745ACD"/>
</linearGradient>
</defs>
</svg>