<svg width="11" height="12" viewBox="0 0 11 12" fill="none" xmlns="http://www.w3.org/2000/svg">
<path d="M5.50004 0C3.67903 0 2.19821 1.53766 2.19821 3.42857C2.19821 5.31949 3.67903 6.85715 5.50004 6.85715C7.32106 6.85715 8.80188 5.31949 8.80188 3.42857C8.80188 1.53766 7.32106 0 5.50004 0Z" fill="white"/>
<path d="M5.50004 0C3.67903 0 2.19821 1.53766 2.19821 3.42857C2.19821 5.31949 3.67903 6.85715 5.50004 6.85715C7.32106 6.85715 8.80188 5.31949 8.80188 3.42857C8.80188 1.53766 7.32106 0 5.50004 0Z" fill="url(#paint0_linear_1_88)"/>
<path d="M9.31309 6.67029C8.40415 7.8208 7.04182 8.57132 5.50003 8.57132C3.95824 8.57132 2.5959 7.8208 1.68691 6.67029C0.895622 7.39852 0.318407 8.3532 0 9.4244C1.36085 10.9934 3.31113 11.9999 5.50003 11.9999C7.68892 11.9999 9.6392 10.9934 11 9.4244C10.6816 8.3532 10.1044 7.39852 9.31309 6.67029Z" fill="white"/>
<path d="M9.31309 6.67029C8.40415 7.8208 7.04182 8.57132 5.50003 8.57132C3.95824 8.57132 2.5959 7.8208 1.68691 6.67029C0.895622 7.39852 0.318407 8.3532 0 9.4244C1.36085 10.9934 3.31113 11.9999 5.50003 11.9999C7.68892 11.9999 9.6392 10.9934 11 9.4244C10.6816 8.3532 10.1044 7.39852 9.31309 6.67029Z" fill="url(#paint1_linear_1_88)"/>
<defs>
<linearGradient id="paint0_linear_1_88" x1="-44.0274" y1="36.5715" x2="9.80656" y2="5.14989" gradientUnits="userSpaceOnUse">
<stop stop-color="#2A1C75"/>
<stop offset="1" stop-color="#5639B7"/>
</linearGradient>
<linearGradient id="paint1_linear_1_88" x1="-77" y1="35.0949" x2="-30.1254" y2="-23.5412" gradientUnits="userSpaceOnUse">
<stop stop-color="#2A1C75"/>
<stop offset="1" stop-color="#5639B7"/>
</linearGradient>
</defs>
</svg>